<?xml version="1.0" standalone="no"?><!DOCTYPE svg PUBLIC "-//W3C//DTD SVG 1.1//EN" "http://www.w3.org/Graphics/SVG/1.1/DTD/svg11.dtd"><svg t="1723457039167" class="icon" viewBox="0 0 1024 1024" version="1.1" xmlns="http://www.w3.org/2000/svg" p-id="4295" xmlns:xlink="http://www.w3.org/1999/xlink" width="200" height="200"><path d="M796.202667 101.973333a98.218667 98.218667 0 0 1 125.866666 125.738667l-211.285333 632.746667v0.085333A98.048 98.048 0 0 1 640 925.269333a96.981333 96.981333 0 0 1-92.16-26.325333l-112.085333-111.488-117.504 60.714667a32 32 0 0 1-46.677334-29.269334l5.333334-204.8a32 32 0 0 1 11.52-23.765333l503.765333-419.584-608.853333 202.965333h-0.042667a34.133333 34.133333 0 0 0-22.485333 26.197334l-0.128 0.725333a32.853333 32.853333 0 0 0 8.96 29.952l70.101333 69.973333a32 32 0 1 1-45.226667 45.312l-70.058666-69.973333a96.981333 96.981333 0 0 1-26.538667-87.765333A98.090667 98.090667 0 0 1 162.688 313.173333l0.213333-0.085333 633.301334-211.157333z m67.797333 92.245334L340.48 630.272l-3.498667 136.192 90.112-46.549333a32 32 0 0 1 37.248 5.717333l129.109334 128.426667a32.981333 32.981333 0 0 0 31.488 8.96l0.384-0.085334a34.133333 34.133333 0 0 0 24.704-22.528v-0.085333l211.498666-633.301333a34.048 34.048 0 0 0 2.474667-12.8z" fill="#1F2322" p-id="4296"></path></svg>