<svg t="1724135125218" class="icon" viewBox="0 0 1024 1024" version="1.1" xmlns="http://www.w3.org/2000/svg" p-id="8121" width="200" height="200"><path d="M484.032 960a8 8 0 0 1-8-8v-326.4L356.16 505.6 246.4 615.68a8.32 8.32 0 0 1-5.632 2.368 8 8 0 0 1-5.696-2.368L195.2 576a7.296 7.296 0 0 1-1.728-2.56 7.616 7.616 0 0 1 0-6.144 7.296 7.296 0 0 1 1.728-2.624l110.016-110.016L188.16 337.6a7.36 7.36 0 0 1-1.728-2.56 7.68 7.68 0 0 1 0-6.144 7.36 7.36 0 0 1 1.728-2.624l39.616-39.616a8.32 8.32 0 0 1 5.632-2.368 8 8 0 0 1 5.696 2.368l596.8 596.8a7.36 7.36 0 0 1 1.728 2.56 7.552 7.552 0 0 1 0 6.144 7.36 7.36 0 0 1-1.728 2.624l-39.616 39.616a8.32 8.32 0 0 1-5.696 2.368 7.872 7.872 0 0 1-5.632-2.368l-236.8-236.8v254.464a7.552 7.552 0 0 1-0.64 3.072 7.296 7.296 0 0 1-1.728 2.56 8 8 0 0 1-5.632 2.368L484.032 960z m293.888-344.32L548.032 385.792V474.88a7.744 7.744 0 0 1-1.344 4.416 7.744 7.744 0 0 1-3.584 2.944 7.872 7.872 0 0 1-4.608 0.448 7.872 7.872 0 0 1-4.096-2.176l-53.632-53.632a15.488 15.488 0 0 1-4.672-11.328v-29.76l-12.8 12.8a8.32 8.32 0 0 1-5.696 2.368 8.32 8.32 0 0 1-5.632-2.368l-39.616-39.616a7.36 7.36 0 0 1-1.728-2.56 7.616 7.616 0 0 1 0-6.144 7.36 7.36 0 0 1 1.728-2.624l76.8-76.8a32.448 32.448 0 0 1 28.864-8.768 32.64 32.64 0 0 1 16.384 8.768l28.288 28.288 265.856 265.856a7.36 7.36 0 0 1 1.728 2.56 7.552 7.552 0 0 1 0 6.144 7.36 7.36 0 0 1-1.728 2.624l-39.616 39.616a8.32 8.32 0 0 1-5.696 2.368 8.32 8.32 0 0 1-5.632-2.368l0.32-0.256zM120.064 135.68a8.064 8.064 0 0 1-7.36-4.736A8 8 0 0 1 112 128v-56c0-1.088 0.192-2.112 0.64-3.072a7.296 7.296 0 0 1 1.728-2.56A8 8 0 0 1 120 64h784a7.936 7.936 0 0 1 8 8V128a7.552 7.552 0 0 1-0.64 3.072 7.36 7.36 0 0 1-1.728 2.56 7.936 7.936 0 0 1-5.632 2.368L120.064 135.68z" fill="#333333" p-id="8122"></path></svg>