<svg t="1724135099970" class="icon" viewBox="0 0 1024 1024" version="1.1" xmlns="http://www.w3.org/2000/svg" p-id="7125" width="200" height="200"><path d="M937.05216 147.4304H689.03552l-68.19456-67.58016A31.22944 31.22944 0 0 0 597.20448 69.12H427.3024v0.08832c-8.00896 0-16.05504 3.06048-22.13504 9.17632l-68.8576 69.04576H87.46624C70.26688 147.4304 56.32 161.21984 56.32 178.22592c0 16.98944 13.94688 30.7776 31.14624 30.7776h261.73568a31.23712 31.23712 0 0 0 23.74528-10.8544l67.264-67.456H584.3968l69.80736 69.17248c6.08 6.02752 14.05312 9.0496 22.02752 9.0496v0.0896h260.82048c17.20192 0 31.14752-13.78688 31.14752-30.7776 0-17.00864-13.94432-30.7968-31.14752-30.7968zM377.31072 790.9952V332.35584c0-17.00608-13.93152-30.79424-31.13088-30.79424-17.18144 0-31.1296 13.78688-31.1296 30.79424v458.63936c0 17.0048 13.9456 30.7776 31.1296 30.7776 17.19936 0 31.13088-13.7728 31.13088-30.7776z" fill="#272536" p-id="7126"></path><path d="M861.3504 279.42912c-17.20192 0-31.14752 13.78944-31.14752 30.7776h-0.00256v544.16c0 11.59808-4.82688 22.1504-12.57216 29.82272-0.4096 0.40448-0.83456 0.82944-1.23264 1.27232-7.5648 6.912-17.73952 11.1552-28.928 11.1552h-550.4128c-11.72608 0-22.4192-4.77312-30.16192-12.42752-7.744-7.67232-12.57216-18.24256-12.57216-29.82272V310.20672c0-16.98816-13.94304-30.77632-31.14752-30.77632-17.20064 0-31.14624 13.78816-31.14624 30.77632v544.16256c0 28.58496 11.81696 54.55232 30.82752 73.34272 19.02336 18.8096 45.29152 30.49216 74.2016 30.49216h550.41408c27.81952 0 53.248-10.9248 72.16512-28.63744a48.61184 48.61184 0 0 0 2.03776-1.85472c19.008-18.7904 30.82752-44.7744 30.82752-73.34272V310.20672c-0.00256-16.98816-13.95072-30.7776-31.15008-30.7776z" fill="#272536" p-id="7127"></path><path d="M543.38304 790.9952V332.35584c0-17.00608-13.93024-30.79424-31.1296-30.79424-17.18272 0-31.13088 13.78688-31.13088 30.79424v458.63936c0 17.0048 13.94688 30.7776 31.13088 30.7776 17.19936 0 31.1296-13.7728 31.1296-30.7776zM709.472 790.9952V332.35584c0-17.00608-13.94688-30.79424-31.1296-30.79424-17.19808 0-31.15008 13.78688-31.15008 30.79424v458.63936c0 17.0048 13.94944 30.7776 31.15008 30.7776 17.18272 0 31.1296-13.7728 31.1296-30.7776z" fill="#272536" p-id="7128"></path></svg>