<svg t="1724132963418" class="icon" viewBox="0 0 1024 1024" version="1.1" xmlns="http://www.w3.org/2000/svg" p-id="4250" width="200" height="200"><path d="M768 480v-160c0-140.8-115.2-256-256-256s-256 115.2-256 256v160c-35.2 0-64 28.8-64 64v352c0 35.2 28.8 64 64 64h512c35.2 0 64-28.8 64-64V544c0-35.2-28.8-64-64-64z m-448-160c0-105.6 86.4-192 192-192s192 86.4 192 192v160H320v-160z m448 576H256V544h512v352z" p-id="4251"></path><path d="M512 640c-19.2 0-32 12.8-32 32v96c0 19.2 12.8 32 32 32s32-12.8 32-32v-96c0-19.2-12.8-32-32-32z" p-id="4252"></path></svg>