<svg t="1724133183767" class="icon" viewBox="0 0 1024 1024" version="1.1" xmlns="http://www.w3.org/2000/svg" p-id="7371" width="200" height="200"><path d="M886.569466 242.750743c-8.213056-10.284227-28.167526-30.750351-30.825053-32.767288-2.052752-1.556449-4.179183-4.64581-7.450692-7.832386-18.47784-17.995863-61.873186-51.460022-126.468366-51.460022-66.850547 0-139.318022 35.724643-210.416314 105.994056-71.098291-70.26839-143.565766-105.994056-210.416314-105.994056-64.596204 0-107.990526 33.464159-126.468366 51.460022-3.27151 3.186576-5.398964 6.274914-7.450692 7.832386-2.657526 2.016937-22.611997 22.48306-30.826076 32.767288C88.247368 302.856679 65.914734 365.368408 75.656609 433.852152c33.679054 236.367359 405.314189 440.549691 421.846724 448.989921l13.905708 7.103792 13.905708-7.103792c16.532535-8.44023 388.168694-212.621539 421.846724-448.989921C956.902324 365.368408 934.570713 302.856679 886.569466 242.750743zM892.996852 426.133354c-26.287713 184.551226-310.75558 362.010941-381.587811 400.890436-70.833255-38.879496-355.300099-216.33921-381.588835-400.890436-8.893554-62.389956 14.68956-118.984928 75.210959-176.460967 0.346901-0.453325 34.05256-44.281529 95.962585-44.281529 57.610092 0 121.148198 37.096896 188.799994 110.223381l21.615297 23.353894 21.615297-23.353894c67.651796-73.126484 131.189901-110.223381 188.801017-110.223381 61.909002 0 95.615685 43.828204 95.961562 44.281529C878.308315 307.148425 901.89143 363.743398 892.996852 426.133354z" fill="#272636" p-id="7372"></path></svg>