<svg t="1723789894545" class="icon" viewBox="0 0 1024 1024" version="1.1" xmlns="http://www.w3.org/2000/svg" p-id="5238" width="200" height="200"><path d="M103.344 866.469L458 511.812l-354.656-354.75c-14.907-14.906-14.907-39.093 0-54 14.906-14.906 39.094-14.906 54 0L512 457.72l354.75-354.656c14.906-14.907 39.094-14.907 54 0 14.906 14.906 14.906 39.093 0 54L566 511.719l354.75 354.75c14.906 14.906 14.906 39.094 0 54-7.5 7.406-17.25 11.156-27 11.156s-19.5-3.75-27-11.156l-354.656-354.75-354.75 354.656c-7.5 7.406-17.25 11.156-27 11.156s-19.5-3.75-27-11.156c-14.906-14.906-14.906-39 0-53.906z" fill="#333333" p-id="5239"></path></svg>