<svg t="1725791854015" class="icon" viewBox="0 0 1024 1024" version="1.1" xmlns="http://www.w3.org/2000/svg" p-id="8539" width="200" height="200"><path d="M237.8752 973.312c-19.1488 0-38.144-7.68-53.4016-19.1488-26.6752-22.9376-41.9328-61.0816-38.144-95.488l41.984-225.1776L27.904 480.8704C1.2288 454.144-2.56 412.0576 1.2288 381.5936c11.4688-41.9328 41.984-68.7616 76.288-72.5504l221.44-41.9328 99.2768-213.7088C421.1712 18.944 451.584 0 489.7792 0c38.144 0 68.7616 19.1488 87.808 53.4016l99.2256 213.7088 221.44 38.1952c34.3552 7.68 64.8192 34.3552 76.288 68.7616 11.4688 34.4064 3.7888 68.7616-19.1488 99.2256l-164.096 160.256 38.144 225.1264c3.7888 38.1952-7.68 72.5504-38.144 95.488-19.1488 11.4688-34.4064 19.1488-57.344 19.1488-19.0976 0-38.144-7.68-41.8816-11.4688l-202.2912-106.9056-206.1824 103.0144a73.216 73.216 0 0 1-45.7216 15.36z" fill="#F7AB41" p-id="8540"></path></svg>