<svg t="1725792424440" class="icon" viewBox="0 0 1024 1024" version="1.1" xmlns="http://www.w3.org/2000/svg" p-id="10656" width="200" height="200"><path d="M512 832.853333l-188.373333 86.208a85.333333 85.333333 0 0 1-120.277334-87.381333l23.786667-205.781333-140.202667-152.512a85.333333 85.333333 0 0 1 45.952-141.397334l203.050667-40.96 101.717333-180.48a85.333333 85.333333 0 0 1 148.693334 0l101.717333 180.48 203.050667 40.96a85.333333 85.333333 0 0 1 45.952 141.397334l-140.202667 152.512 23.786667 205.781333a85.333333 85.333333 0 0 1-120.298667 87.381333L512 832.853333z m26.624-58.197333l188.373333 86.208a21.333333 21.333333 0 0 0 30.08-21.845333l-23.786666-205.781334a64 64 0 0 1 16.448-50.666666l140.202666-152.490667a21.333333 21.333333 0 0 0-11.477333-35.349333l-203.072-40.96a64 64 0 0 1-43.093333-31.338667l-101.717334-180.458667a21.333333 21.333333 0 0 0-37.162666 0l-101.717334 180.48a64 64 0 0 1-43.093333 31.296l-203.072 40.96a21.333333 21.333333 0 0 0-11.477333 35.370667l140.202666 152.490667a64 64 0 0 1 16.448 50.666666l-23.765333 205.781334a21.333333 21.333333 0 0 0 30.08 21.845333l188.352-86.186667a64 64 0 0 1 53.248 0z" fill="#000000" p-id="10657"></path></svg>