<svg t="1725789390425" class="icon" viewBox="0 0 1024 1024" version="1.1" xmlns="http://www.w3.org/2000/svg" p-id="5375" width="200" height="200"><path d="M760.384 64c47.808 0 91.968 11.968 132.352 35.84a264.32 264.32 0 0 1 95.872 97.152A263.68 263.68 0 0 1 1024 330.88c0 34.752-6.592 68.544-19.712 101.312a262.4 262.4 0 0 1-57.536 87.424L512 960 77.248 519.68A268.8 268.8 0 0 1 0 330.88c0-48.384 11.776-93.056 35.392-133.952A264.32 264.32 0 0 1 131.2 99.84 255.296 255.296 0 0 1 263.68 64 260.736 260.736 0 0 1 449.92 142.208l62.08 62.912 62.144-62.912a258.944 258.944 0 0 1 86.336-58.24A259.584 259.584 0 0 1 760.512 64h-0.128z m0 88.96a174.272 174.272 0 0 0-124.16 52.16L511.872 330.88 387.84 205.12a174.272 174.272 0 0 0-124.288-52.16c-32 0-61.504 7.936-88.384 23.808a175.36 175.36 0 0 0-63.808 64.64 176.32 176.32 0 0 0-23.552 89.536c0 23.168 4.352 45.632 13.056 67.392 8.704 21.824 21.504 41.28 38.4 58.432L512 834.176l372.672-377.408c16.896-17.152 29.696-36.608 38.4-58.432 8.704-21.76 13.056-44.224 13.056-67.392 0-32.448-7.808-62.336-23.488-89.536a175.36 175.36 0 0 0-63.872-64.64 170.688 170.688 0 0 0-88.32-23.808z" fill="#262626" p-id="5376"></path></svg>