<?xml version="1.0" standalone="no"?><!DOCTYPE svg PUBLIC "-//W3C//DTD SVG 1.1//EN" "http://www.w3.org/Graphics/SVG/1.1/DTD/svg11.dtd"><svg t="1723446689762" class="icon" viewBox="0 0 2382 1024" version="1.1" xmlns="http://www.w3.org/2000/svg" p-id="6474" xmlns:xlink="http://www.w3.org/1999/xlink" width="465.234375" height="200"><path d="M1975.20259377 832.02731327h150.08418972v-232.36596786H1855.85224945v357.87700428h-151.23279339v-368.94536476h-130.41870608v-155.93162556h128.50436618V277.18221376h-93.97664854V121.04175069h94.81199726V44.05051098h151.12837465v76.32992225h86.4933228c52.20925019-0.2784487 92.7932399 21.8930785 122.90057409 63.76489688 20.36160736 28.29741306 28.05377059 60.35389211 27.49687188 95.12525351-0.80054247 50.43413531-0.41767371 100.9378831-0.45247996 151.37201839 0 3.30658604 0.59170496 6.64797831 1.11379743 11.7644842h31.63880533c85.65797537-0.17403124 145.94225627 59.34451342 146.18589872 145.10690754q0 127.04250755-1.00937867 254.08501512c-0.55689871 64.32179559-42.18507334 118.34096564-101.49478181 124.71049523-43.57732078 4.76844466-87.98998898 1.74030864-132.05459468 1.74030735-3.06294227 0-6.71758951-3.48061729-9.01479817-6.09107831a33.06585772 33.06585772 0 0 1-4.14193345-9.50208439c-15.55835644-39.33096858-30.83826286-78.62712961-47.12754927-120.42933548z m-118.68902814-391.11689326h90.49603383v-163.58898126h-90.49603383zM1098.99215874 416.16323676c3.02813603-29.55043548 2.99332978-30.66423291 31.32555038-31.32555038 40.54918346-0.76573622 81.13317445 1.32263493 121.82158291 0 19.83951489-0.59170496 26.10462445 6.96123327 23.42454964 25.09524578a28.40183181 28.40183181 0 0 0 1.04418493 5.95185459h17.92517629c53.28824137 0.41767371 106.61128769 0.52209247 159.93433401 1.46185863 36.82492371 0.62651121 49.77281782 14.30533401 49.8076241 50.92142152v300.93411566c0 37.72988494-15.45393769 54.43684375-53.67110884 54.95893752-77.09565846 1.00937868-154.19131693 1.04418493-231.28697539 1.04418492-98.01416452 0-195.99352282 0-293.9728824-1.00937867-35.29345258-0.34806121-47.19716177-10.65068677-47.89328547-45.03917943-1.94914485-99.05834945-2.15798236-198.11669892-2.99332978-297.2098559a57.88265478 57.88265478 0 0 1 0.73092996-6.96123329c5.60379339-50.39932906 6.96123327-57.60420608 68.2200853-58.96164595 45.24801692-1.04418493 90.49603255-0.2088375 135.74404947-0.20883751z m254.0850151 104.20966158h-77.26968971v44.23863824h77.26968971z m-77.26968971 200.48351877h76.991241v-44.23863695h-76.991241z m-176.36284544-44.16902444h-74.86806359v44.4822807h74.86806359z m-0.45247995-111.83221363v-44.51708694H1024.68099385v44.51708694zM979.11972197 94.13658378c0-16.1500614-1.11379743-28.40183181 0.55689872-40.2359285 0.66131746-4.62921967 7.51813199-11.93851545 11.62525919-12.00812666 49.84243034-0.83534742 99.68486066-0.48728622 149.49248474-0.62651121 9.53688934 0 13.64401783 4.14193345 13.40037408 13.67882279-0.31325495 12.00812795 0 24.05106085 0 36.96414872h84.02208679c0-11.83409669 0.41767371-23.66819339 0-35.46748253-0.45247997-9.9197568 2.61046233-15.27990772 13.50479154-15.21029523q74.7288399 0.24364375 149.49248605 0c10.78991177 0 14.1661103 5.18611838 13.92246655 15.03626397-0.34806121 11.48603548 0 22.93726342 0 37.06856747h100.10253438c0 36.02438254 0.41767371 69.61233273-0.69612372 102.8522217 0 3.16736103-9.88495184 8.45789815-15.31471268 8.66673567-27.18361563 0.87015367-54.40203879 0.38286747-82.83867684 0.38286747v55.34180496h98.88431949c0 35.74593253 0.2784487 69.15985277-0.45247997 102.57377299 0 2.92371858-6.50875331 7.72696949-10.44185055 8.24906066a274.51623495 274.51623495 0 0 1-34.80616636 1.53147114H909.43777673c-6.36952831 0-12.73905662-0.2088375-19.10858622-0.59170497-27.25322813-1.67069614-27.25322813-1.70550239-27.28803438-28.2626068 0-20.88369982 0.73092996-41.76739964-0.24364245-62.65109946-0.62651121-14.34014026 2.54084981-20.88369982 18.89974872-20.36160734 31.70841783 1.25302243 63.45164192 0.38286747 96.27385588 0.38286745v-54.29762004c-6.40433456-0.38286747-13.08711913-0.97457242-19.73509614-1.07899119q-39.99228474-0.59170496-80.05418328-0.87015366c-9.43247058 0-15.38432517-2.81929982-15.21029522-13.92246655 0.34806121-27.8449331 0.2784487-55.68986619 0-83.53479927 0-10.65068677 4.76844466-13.92246654 14.89704026-13.92246656 32.92663402 0.55689871 65.88807299 0.31325495 101.25113807 0.31325498z m175.56230295 112.66756103v52.66173016h82.21216564V206.80414481zM254.83820405 829.3820447h100.9378818V70.81645289h151.51124341c0.31325495 6.33472206 0.87015367 11.9733217 0.87015368 17.61192004v756.99931443c0 35.01500386-11.9733217 67.10628916-30.66423292 96.48269339a48.48499045 48.48499045 0 0 1-45.24801561 23.84222463c-37.10337372-0.93976618-74.2415537-0.66131746-111.37973238 0-10.68549301 0.17403124-16.56773511-2.2624011-20.3964136-13.22634412-14.40975276-40.40995975-29.68966048-80.332632-45.63088438-123.14421656zM739.37484712 290.86103655c0 5.9518546 0.2088375 11.03355423 0 16.08044889a1604.56427389 1604.56427389 0 0 0 15.59316269 318.85929196c4.21154595 28.6106693 10.85952427 56.83846986 15.90641765 85.30991418a25.30408327 25.30408327 0 0 1-1.67069615 14.65339521c-25.65214448 51.19987151-51.72196399 102.19090425-77.75697592 153.14713329-0.45247997 0.90495993-1.63588989 1.39224613-6.12588456 5.11650588-11.69487169-19.52625993-24.99082702-37.59065993-34.04043144-57.56939982-25.89578823-56.97769487-36.99895498-118.09732318-45.24801563-179.59981896-15.55835644-114.51228714-19.76990239-229.7206993-18.02959504-345.10314012 0-3.48061729 0.55689871-6.68278457 0.93976747-10.92913676zM166.36092886 878.87641383C137.95909704 822.59484269 111.05393013 769.44582632 84.56643693 716.1227787c-1.53147114-3.02813603-0.17403124-7.76177574 0.48728621-11.5556467 9.53688934-54.08878254 21.09253732-107.89911637 28.3322206-162.23154266 11.03355423-81.23759191 11.03355423-162.99727759 4.52480092-244.72215573-0.31325495-3.9679035 0-7.97061195 0-13.08711911H266.60268824a34.45810515 34.45810515 0 0 1 1.8447261 7.86619319c-0.62651121 150.88473219-5.9518546 301.42140188-39.88786599 449.34760924-9.71092059 42.39391085-22.69362096 83.95247298-48.10212299 120.29011179-3.27177979 4.66402592-7.30929449 8.80596067-14.0964965 16.84618511zM1219.21265802 843.30451126H1316.49589387c34.80616636 0.17403124 68.8465978-0.97457242 102.5737717 16.46331635 23.45935588 12.11254541 53.42746508 11.45122923 80.29782575 17.40308383 5.67340459 1.25302243 15.03626397 5.9518546 15.14068271 9.32805184 1.18340993 31.63880533 0.69612372 63.34722318 0.69612373 96.06501968-78.66193585 2.81929982-155.16589063 7.20487702-222.2025673-40.75802096-33.90120643-24.0858671-59.20528972-54.2628138-73.78907244-98.50145074zM1157.36209974 843.4785425c-5.22092463 29.55043548-20.88369982 50.26010404-38.56523236 69.19465902-41.24530718 44.55189321-93.76781232 66.13171675-153.59961196 69.78636268-28.81950551 1.77511489-57.88265478 0-86.80657905 0.69612372-11.17277922 0.2088375-15.66277519-4.03751471-15.4539377-15.24510018 0.41767371-24.36431711 0.45247997-48.72863291 0-73.09295002-0.24364375-12.28657665 4.21154595-17.82075754 17.02021509-18.20362499 37.97352739-1.11379743 74.3807774-8.42309191 107.37702391-28.71508806a30.07252795 30.07252795 0 0 1 14.75781396-4.35076967c50.88661525-0.24364375 101.77323053-0.0696125 155.27030811-0.0696125zM2135.93747026 276.34686505c0-31.63880533-1.28782867-60.63234211 0.31325625-89.45184763 2.05356361-36.44205626 31.32555038-65.88807299 64.94830551-68.15047409 35.67632004-2.4016261 66.3057467 22.06710974 74.48519745 59.41412722 11.31200423 51.75676894-26.03501195 98.01416452-79.28844837 98.15338825-19.56106619 0.0696125-39.12213107 0.03480625-60.45831084 0.03480625z" fill="#ffc962" p-id="6475"></path></svg>