<svg t="1723826047807" class="icon" viewBox="0 0 1024 1024" version="1.1" xmlns="http://www.w3.org/2000/svg" p-id="4312" width="200" height="200"><path d="M412.1 895.3C255.4 895.3 128 767.8 128 611.1 128 454.5 255.4 327 412.1 327c156.7 0 284.1 127.5 284.1 284.1 0 156.7-127.4 284.2-284.1 284.2z m0-504.6c-121.6 0-220.5 98.9-220.5 220.6s98.9 220.6 220.5 220.6S632.7 733 632.7 611.3s-99-220.6-220.6-220.6z" fill="#A8A8A8" p-id="4313"></path><path d="M590.6 465.6c-8.5 0-16.4-3.3-22.5-9.3-6-6-9.3-14-9.3-22.5s3.3-16.5 9.3-22.5l272.9-273c6-6 14-9.3 22.5-9.3s16.5 3.3 22.5 9.3c6 6 9.3 14 9.3 22.5s-3.3 16.5-9.3 22.5L613 456.2c-6 6-14 9.4-22.4 9.4z" fill="#A8A8A8" p-id="4314"></path><path d="M864.2 484.8c-17.5 0-31.8-14.3-31.8-31.8V192.3H571.8c-17.5 0-31.8-14.3-31.8-31.8s14.3-31.8 31.8-31.8h292.5c17.5 0 31.8 14.3 31.8 31.8V453c-0.1 17.5-14.4 31.8-31.9 31.8z" fill="#A8A8A8" p-id="4315"></path></svg>