<svg t="1723787252622" class="icon" viewBox="0 0 1024 1024" version="1.1" xmlns="http://www.w3.org/2000/svg" p-id="13971" width="200" height="200"><path d="M512 848c-28.672 0-56.576-2.624-83.776-7.104L232 960l0-198.272C129.664 689.856 64 579.776 64 456 64 239.488 264.576 64 512 64c247.36 0 448 175.488 448 392S759.36 848 512 848zM512 120c-216.512 0-392 150.464-392 336 0 113.856 66.24 214.336 167.296 275.072l-1.792 129.92 131.84-79.232c30.4 6.464 61.952 10.24 94.656 10.24 216.512 0 392-150.4 392-336C904 270.464 728.512 120 512 120zM707.968 428.032 316.032 428.032C300.544 428.032 288 415.488 288 400s12.544-28.032 28.032-28.032l392 0c15.488 0 28.032 12.544 28.032 28.032S723.52 428.032 707.968 428.032zM371.968 540.032l280 0c15.488 0 28.032 12.48 28.032 28.032s-12.48 28.032-28.032 28.032L371.968 596.096c-15.488 0-28.032-12.48-28.032-28.032S356.544 540.032 371.968 540.032z" p-id="13972"></path></svg>