<svg t="1725841421149" class="icon" viewBox="0 0 1025 1024" version="1.1" xmlns="http://www.w3.org/2000/svg" p-id="6562" width="200" height="200"><path d="M511.3344 698.0608a39.8848 39.8848 0 0 1-38.912-38.912v-352.768a38.912 38.912 0 0 1 77.824 0v352.768a39.8848 39.8848 0 0 1-38.912 38.912z" fill="#f4ea2a" p-id="6563"></path><path d="M864.1024 67.1744h-254.4128a54.1696 54.1696 0 0 0-41.5232 20.736 72.7552 72.7552 0 0 1-119.296 0 50.3808 50.3808 0 0 0-41.5232-20.736H153.1392A153.2928 153.2928 0 0 0 0.1024 220.2112v531.712a153.2928 153.2928 0 0 0 153.0368 153.0368H373.6064a54.6304 54.6304 0 0 1 33.7408 12.9536 152.9344 152.9344 0 0 0 101.1712 38.912 158.2592 158.2592 0 0 0 101.1712-38.912 49.3056 49.3056 0 0 1 33.7408-12.9536h220.4672a153.2928 153.2928 0 0 0 153.0368-153.0368V220.2112a151.6544 151.6544 0 0 0-153.0368-153.0368z m77.824 684.7488a75.264 75.264 0 0 1-75.2128 75.2128h-254.208a54.1696 54.1696 0 0 0-41.5232 20.736 72.7552 72.7552 0 0 1-119.296 0 50.3808 50.3808 0 0 0-41.5232-20.736H155.9552a75.264 75.264 0 0 1-75.2128-75.2128V220.2112a75.264 75.264 0 0 1 75.2128-75.2128h220.4672a54.6304 54.6304 0 0 1 33.7408 12.9536 152.9344 152.9344 0 0 0 101.1712 38.912 158.2592 158.2592 0 0 0 101.1712-38.912 49.3056 49.3056 0 0 1 33.7408-12.9536h220.4672a75.264 75.264 0 0 1 75.2128 75.2128v531.712z" p-id="6564" fill="#f4ea2a"></path></svg>