<svg t="1723787075218" class="icon" viewBox="0 0 1024 1024" version="1.1" xmlns="http://www.w3.org/2000/svg" p-id="7676" width="200" height="200"><path d="M133.418667 98.666667c140.053333-30.421333 258.005333-10.261333 350.4 61.930666a347.050667 347.050667 0 0 1 91.413333 107.52c7.957333-16.768 17.792-32.64 29.482667-47.594666 55.210667-70.677333 140.373333-106.026667 251.776-107.285334l8.896-0.021333 9.92 0.128c23.381333 0.533333 36.864 15.296 40.618666 32.426667l0.405334 2.133333 1.6 6.016c27.946667 109.376 16.490667 201.6-36.416 273.408l-4.501334 5.930667c-54.250667 69.418667-137.386667 104.746667-245.952 107.178666 0.874667 31.594667 1.152 65.749333 0.789334 102.378667l-0.426667 30.208-0.704 31.296c-2.261333 85.76-8.661333 158.997333-19.264 219.946667a42.666667 42.666667 0 1 1-84.053333-14.613334c9.813333-56.469333 15.850667-125.717333 18.026666-207.573333l0.362667-15.36 0.554667-29.909333c0.341333-24.448 0.426667-47.744 0.213333-69.909334l-0.384-26.026666-0.277333-12.586667-0.362667-10.922667c-118.485333 16.064-219.562667-7.189333-300.842667-70.698666-92.416-72.192-140.501333-181.76-144.853333-325.013334a42.666667 42.666667 0 0 1 33.578667-42.986666z m297.877333 129.173333C368.256 178.56 288.490667 160.682667 189.546667 175.125333l-2.154667 0.32 0.213333 2.176c9.6 96.384 44.330667 167.978667 103.786667 217.109334l5.824 4.693333c63.04 49.258667 142.826667 67.157333 241.749333 52.714667l2.133334-0.341334-0.170667-2.133333c-9.621333-96.405333-44.352-168-103.808-217.152zM840.704 199.04l-9.984 0.618667c-72.938667 5.397333-125.013333 30.144-158.762667 73.386666-35.029333 44.8-46.016 103.914667-31.317333 179.861334l0.341333 1.770666 10.005334-0.597333c70.229333-5.205333 121.109333-28.352 154.944-68.650667l3.84-4.736c35.008-44.821333 45.994667-103.936 31.296-179.882666l-0.362667-1.770667z" p-id="7677"></path></svg>